<svg width="36" height="36" viewBox="0 0 36 36" fill="none" xmlns="http://www.w3.org/2000/svg">
<g id="icon / iconoir / money-square">
<path id="Vector" d="M4.5 30.6V5.4C4.5 4.90294 4.90294 4.5 5.4 4.5H30.6C31.0971 4.5 31.5 4.90294 31.5 5.4V30.6C31.5 31.0971 31.0971 31.5 30.6 31.5H5.4C4.90294 31.5 4.5 31.0971 4.5 30.6Z" stroke="#21272A" stroke-width="1.5"/>
<path id="Vector_2" d="M18 24.5865V27.75M22.5 12.75C21.4725 11.7225 19.6631 11.0078 18 10.9631L22.5 12.75ZM13.5 22.5C14.4667 23.789 16.2642 24.5241 18 24.5865L13.5 22.5ZM18 10.9631C16.0213 10.9098 14.25 11.805 14.25 14.25C14.25 18.75 22.5 16.5 22.5 21C22.5 23.5665 20.3043 24.6693 18 24.5865V10.9631ZM18 10.9631V8.25V10.9631Z" stroke="#21272A" stroke-width="1.5" stroke-linecap="round" stroke-linejoin="round"/>
</g>
</svg>
